<svg width="97" height="97" viewBox="0 0 97 97" fill="none" xmlns="http://www.w3.org/2000/svg">
<path fill-rule="evenodd" clip-rule="evenodd" d="M32.3333 40.4167C32.3333 31.4881 39.5714 24.2501 48.5 24.2501C57.4284 24.2501 64.6667 31.4881 64.6667 40.4167V44.4584H68.7083C76.5209 44.4584 82.8542 50.7917 82.8542 58.6042C82.8542 66.4168 76.5209 72.7501 68.7083 72.7501H64.6667C62.4345 72.7501 60.625 74.5595 60.625 76.7917C60.625 79.024 62.4345 80.8334 64.6667 80.8334H68.7083C80.9853 80.8334 90.9375 70.8812 90.9375 58.6042C90.9375 47.6081 82.9532 38.4766 72.4655 36.6913C70.6734 25.067 60.6262 16.1667 48.5 16.1667C36.3739 16.1667 26.3266 25.067 24.5344 36.6913C14.0469 38.4766 6.0625 47.6081 6.0625 58.6042C6.0625 70.8812 16.0148 80.8334 28.2917 80.8334H32.3333C34.5655 80.8334 36.375 79.024 36.375 76.7917C36.375 74.5595 34.5655 72.7501 32.3333 72.7501H28.2917C20.4791 72.7501 14.1458 66.4168 14.1458 58.6042C14.1458 50.7917 20.4791 44.4584 28.2917 44.4584H32.3333V40.4167ZM63.4829 53.7256L51.3579 41.6006C49.7796 40.0222 47.2204 40.0222 45.6421 41.6006L33.5171 53.7256C31.9387 55.3038 31.9387 57.863 33.5171 59.4413C35.0955 61.0195 37.6545 61.0195 39.2329 59.4413L44.4583 54.2158V76.7917C44.4583 79.024 46.2678 80.8334 48.5 80.8334C50.7322 80.8334 52.5417 79.024 52.5417 76.7917V54.2158L57.7671 59.4413C59.3454 61.0195 61.9046 61.0195 63.4829 59.4413C65.0611 57.863 65.0611 55.3038 63.4829 53.7256Z" fill="#7C26BF"/>
</svg>
