<svg width="40" height="40" viewBox="0 0 40 40" fill="none" xmlns="http://www.w3.org/2000/svg">
<path fill-rule="evenodd" clip-rule="evenodd" d="M3.74794 3.82074C3.09668 3.59175 2.38309 3.9341 2.15411 4.58537C1.92513 5.23665 2.26748 5.95024 2.91876 6.17922L3.35411 6.33227C4.46678 6.72347 5.19804 6.98272 5.73611 7.24674C6.24149 7.4947 6.46428 7.69542 6.61104 7.91019C6.76148 8.13034 6.87764 8.4327 6.94319 9.03829C7.01178 9.67197 7.01348 10.4973 7.01348 11.7306V16.2666C7.01348 18.6875 7.03619 20.4332 7.26463 21.7668C7.50849 23.1907 7.99538 24.21 8.90578 25.1703C9.89554 26.2142 11.1502 26.6687 12.6439 26.8805C14.0743 27.0833 15.8907 27.0833 18.1337 27.0833H27.1432C28.3793 27.0833 29.4193 27.0833 30.261 26.9803C31.1538 26.8712 31.9682 26.6322 32.679 26.053C33.3898 25.4737 33.7882 24.7243 34.0755 23.872C34.3462 23.0683 34.5562 22.0498 34.8057 20.8392L35.6538 16.7235L35.6555 16.7158L35.6728 16.6288C35.9473 15.2539 36.1782 14.0975 36.2357 13.1673C36.2958 12.1903 36.1847 11.2269 35.5483 10.3996C35.1567 9.89057 34.6062 9.60239 34.1053 9.42642C33.5945 9.24694 33.0168 9.1431 32.434 9.07794C31.2888 8.94994 29.8978 8.94995 28.5335 8.94997H9.44649C9.44101 8.88872 9.43508 8.82847 9.42868 8.76925C9.33913 7.94195 9.14509 7.18742 8.67513 6.49969C8.20149 5.80659 7.57174 5.36269 6.83736 5.00235C6.15054 4.66535 5.27783 4.35855 4.25028 3.99734L3.74794 3.82074ZM9.51348 11.45H28.4813C29.9087 11.45 31.1648 11.4516 32.1562 11.5625C32.6488 11.6175 33.0175 11.694 33.2765 11.7851C33.4882 11.8595 33.5598 11.9202 33.5702 11.929C33.57 11.9288 33.5707 11.9294 33.5702 11.929C33.6725 12.0647 33.7837 12.3108 33.7403 13.0133C33.6947 13.7525 33.5005 14.7396 33.2045 16.2229L33.2038 16.2266L32.3725 20.2602C32.1035 21.5648 31.9225 22.4322 31.7063 23.0735C31.5012 23.6825 31.3085 23.9448 31.0997 24.115C30.891 24.285 30.5952 24.4208 29.9573 24.4988C29.2853 24.5812 28.3995 24.5833 27.0673 24.5833H18.2292C15.8678 24.5833 14.2294 24.5803 12.9949 24.4053C11.8036 24.2363 11.1742 23.9293 10.72 23.4502C10.1864 22.8875 9.89856 22.3363 9.72874 21.3448C9.54348 20.263 9.51348 18.7483 9.51348 16.2666V11.45Z" fill="white"/>
<path fill-rule="evenodd" clip-rule="evenodd" d="M12.5 36.25C10.4289 36.25 8.75 34.571 8.75 32.5C8.75 30.4288 10.4289 28.75 12.5 28.75C14.5711 28.75 16.25 30.4288 16.25 32.5C16.25 34.571 14.5711 36.25 12.5 36.25ZM11.25 32.5C11.25 33.1903 11.8097 33.75 12.5 33.75C13.1904 33.75 13.75 33.1903 13.75 32.5C13.75 31.8097 13.1904 31.25 12.5 31.25C11.8097 31.25 11.25 31.8097 11.25 32.5Z" fill="white"/>
<path fill-rule="evenodd" clip-rule="evenodd" d="M27.5 36.2501C25.429 36.2501 23.75 34.5711 23.75 32.5001C23.75 30.429 25.429 28.7501 27.5 28.7501C29.571 28.7501 31.25 30.429 31.25 32.5001C31.25 34.5711 29.571 36.2501 27.5 36.2501ZM26.25 32.5001C26.25 33.1905 26.8097 33.7501 27.5 33.7501C28.1903 33.7501 28.75 33.1905 28.75 32.5001C28.75 31.8098 28.1903 31.2501 27.5 31.2501C26.8097 31.2501 26.25 31.8098 26.25 32.5001Z" fill="white"/>
</svg>
