<svg width="75" height="75" viewBox="0 0 75 75" fill="none" xmlns="http://www.w3.org/2000/svg">
<path fill-rule="evenodd" clip-rule="evenodd" d="M36.8434 18.8947C37.26 18.7018 37.74 18.7018 38.1566 18.8947L53.7816 26.1315C54.3341 26.3873 54.6875 26.9406 54.6875 27.5493V45.6416C54.6875 46.1991 54.3903 46.7144 53.9078 46.9937L38.2828 56.0397C37.7987 56.32 37.2013 56.32 36.7172 56.0397L21.0921 46.9937C20.6096 46.7144 20.3125 46.1991 20.3125 45.6416V27.5493C20.3125 26.9406 20.666 26.3873 21.2183 26.1315L36.8434 18.8947ZM23.4375 30.0815L35.9375 36.3534V51.9775L23.4375 44.7406V30.0815ZM39.0625 51.9775L51.5625 44.7406V30.0815L39.0625 36.3534V51.9775ZM37.5 33.6412L49.5287 27.6056L37.5 22.0345L25.4713 27.6056L37.5 33.6412Z" fill="#7C26BF"/>
<path fill-rule="evenodd" clip-rule="evenodd" d="M7.8125 9.375C7.8125 8.51206 8.51206 7.8125 9.375 7.8125H18.75C19.6129 7.8125 20.3125 8.51206 20.3125 9.375C20.3125 10.2379 19.6129 10.9375 18.75 10.9375H10.9375V18.75C10.9375 19.6129 10.2379 20.3125 9.375 20.3125C8.51206 20.3125 7.8125 19.6129 7.8125 18.75V9.375Z" fill="#7C26BF"/>
<path fill-rule="evenodd" clip-rule="evenodd" d="M65.625 7.8125C66.4878 7.8125 67.1875 8.51206 67.1875 9.375V18.75C67.1875 19.6129 66.4878 20.3125 65.625 20.3125C64.7622 20.3125 64.0625 19.6129 64.0625 18.75V10.9375H56.25C55.3872 10.9375 54.6875 10.2379 54.6875 9.375C54.6875 8.51206 55.3872 7.8125 56.25 7.8125H65.625Z" fill="#7C26BF"/>
<path fill-rule="evenodd" clip-rule="evenodd" d="M9.375 67.1875C8.51206 67.1875 7.8125 66.4878 7.8125 65.625V56.25C7.8125 55.3872 8.51206 54.6875 9.375 54.6875C10.2379 54.6875 10.9375 55.3872 10.9375 56.25V64.0625H18.75C19.6129 64.0625 20.3125 64.7622 20.3125 65.625C20.3125 66.4878 19.6129 67.1875 18.75 67.1875H9.375Z" fill="#7C26BF"/>
<path fill-rule="evenodd" clip-rule="evenodd" d="M67.1875 65.625C67.1875 66.4878 66.4878 67.1875 65.625 67.1875H56.25C55.3872 67.1875 54.6875 66.4878 54.6875 65.625C54.6875 64.7622 55.3872 64.0625 56.25 64.0625H64.0625V56.25C64.0625 55.3872 64.7622 54.6875 65.625 54.6875C66.4878 54.6875 67.1875 55.3872 67.1875 56.25V65.625Z" fill="#7C26BF"/>
</svg>
