<svg width="75" height="75" viewBox="0 0 75 75" fill="none" xmlns="http://www.w3.org/2000/svg">
<path fill-rule="evenodd" clip-rule="evenodd" d="M49.6209 11.5845C53.2822 7.92335 59.2181 7.92338 62.8791 11.5845L63.4153 12.1207C67.0766 15.7818 67.0766 21.7178 63.4153 25.3789L57.9863 30.808L27.2098 61.5847C26.8093 61.985 26.3075 62.2691 25.758 62.4066L13.258 65.5316C12.1931 65.7978 11.0665 65.4856 10.2904 64.7097C9.51416 63.9334 9.20213 62.8069 9.46838 61.7419L12.5934 49.2419C12.7308 48.6925 13.0149 48.1906 13.4154 47.79L44.3716 16.8339L49.6209 11.5845ZM58.4597 16.0039C57.2394 14.7836 55.2606 14.7836 54.0403 16.0039L50.9588 19.0856L55.8194 24.1362L58.9959 20.9595C60.2163 19.7392 60.2163 17.7605 58.9959 16.5401L58.4597 16.0039ZM51.3991 28.5564L46.5384 23.5058L18.4468 51.5975L16.795 58.205L23.4024 56.5531L51.3991 28.5564Z" fill="#7C26BF"/>
</svg>
