<svg width="40" height="41" viewBox="0 0 40 41" fill="none" xmlns="http://www.w3.org/2000/svg">
<path d="M1.66699 37.2204C1.66699 36.2999 2.41319 35.5537 3.33366 35.5537H36.667C37.5875 35.5537 38.3337 36.2999 38.3337 37.2204C38.3337 38.1409 37.5875 38.887 36.667 38.887H3.33366C2.41319 38.887 1.66699 38.1409 1.66699 37.2204Z" fill="white"/>
<path fill-rule="evenodd" clip-rule="evenodd" d="M30.509 3.68517C28.5565 1.73255 25.3907 1.73255 23.438 3.68517L5.64807 21.475C4.97567 22.1475 4.50896 22.9977 4.30267 23.926L3.41472 27.9217C2.88546 30.3034 5.01012 32.428 7.39177 31.8989L11.3875 31.0109C12.3158 30.8045 13.166 30.3379 13.8384 29.6655L31.6283 11.8755C33.581 9.9229 33.581 6.75709 31.6283 4.80445L30.509 3.68517ZM25.795 6.04219C26.4458 5.39132 27.5012 5.39132 28.152 6.04219L29.2713 7.16149C29.9222 7.81235 29.9222 8.86764 29.2713 9.5185L26.0687 12.7211L22.5923 9.24484L25.795 6.04219ZM20.2353 11.6019L8.00509 23.8322C7.78096 24.0562 7.62539 24.3397 7.55662 24.649L6.66867 28.6449L10.6644 27.7569C10.9739 27.6882 11.2573 27.5325 11.4814 27.3084L23.7117 15.0782L20.2353 11.6019Z" fill="white"/>
</svg>
