<svg width="30" height="31" viewBox="0 0 30 31" fill="none" xmlns="http://www.w3.org/2000/svg">
<path d="M16.25 4.65502C16.25 3.96724 15.6904 3.40967 15 3.40967C14.3096 3.40967 13.75 3.96724 13.75 4.65502V14.6179H3.75C3.05965 14.6179 2.5 15.1754 2.5 15.8632C2.5 16.551 3.05965 17.1086 3.75 17.1086H13.75V27.0714C13.75 27.7592 14.3096 28.3168 15 28.3168C15.6904 28.3168 16.25 27.7592 16.25 27.0714V17.1086H26.25C26.9404 17.1086 27.5 16.551 27.5 15.8632C27.5 15.1754 26.9404 14.6179 26.25 14.6179H16.25V4.65502Z" fill="#C99E22"/>
</svg>
