<svg width="45" height="45" viewBox="0 0 45 45" fill="none" xmlns="http://www.w3.org/2000/svg">
<g clip-path="url(#clip0_479_659)">
<path d="M19.6875 14.0625H25.3125V18.2812C25.3125 18.6542 25.1643 19.0119 24.9006 19.2756C24.6369 19.5393 24.2792 19.6875 23.9062 19.6875H21.0938C20.7208 19.6875 20.3631 19.5393 20.0994 19.2756C19.8357 19.0119 19.6875 18.6542 19.6875 18.2812V14.0625Z" fill="#696969"/>
<path d="M28.125 32.3438H16.875C15.7561 32.3438 14.6831 31.8993 13.8919 31.1081C13.1007 30.3169 12.6562 29.2439 12.6562 28.125V16.875C12.6562 15.7561 13.1007 14.6831 13.8919 13.8919C14.6831 13.1007 15.7561 12.6563 16.875 12.6562H28.125C29.2439 12.6562 30.3169 13.1007 31.1081 13.8919C31.8993 14.6831 32.3438 15.7561 32.3438 16.875V28.125C32.3438 29.2439 31.8993 30.3169 31.1081 31.1081C30.3169 31.8993 29.2439 32.3438 28.125 32.3438ZM16.875 15.4688C16.502 15.4688 16.1444 15.6169 15.8806 15.8806C15.6169 16.1444 15.4688 16.502 15.4688 16.875V28.125C15.4688 28.498 15.6169 28.8556 15.8806 29.1194C16.1444 29.3831 16.502 29.5312 16.875 29.5312H28.125C28.498 29.5312 28.8556 29.3831 29.1194 29.1194C29.3831 28.8556 29.5312 28.498 29.5312 28.125V16.875C29.5312 16.502 29.3831 16.1444 29.1194 15.8806C28.8556 15.6169 28.498 15.4688 28.125 15.4688H16.875Z" fill="#696969"/>
<path d="M21.0938 26.7188H19.6875C19.3145 26.7188 18.9569 26.5706 18.6931 26.3069C18.4294 26.0431 18.2812 25.6855 18.2812 25.3125C18.2812 24.9395 18.4294 24.5819 18.6931 24.3181C18.9569 24.0544 19.3145 23.9062 19.6875 23.9062H21.0938C21.4667 23.9062 21.8244 24.0544 22.0881 24.3181C22.3518 24.5819 22.5 24.9395 22.5 25.3125C22.5 25.6855 22.3518 26.0431 22.0881 26.3069C21.8244 26.5706 21.4667 26.7188 21.0938 26.7188Z" fill="#696969"/>
<path d="M42.1875 34.0875L40.7812 39.7125C40.721 39.9531 40.5982 40.1735 40.4254 40.3513C40.2525 40.5291 40.0357 40.658 39.7969 40.725C39.6608 40.7691 39.5179 40.7882 39.375 40.7813C39.1899 40.7823 39.0065 40.7469 38.8351 40.6769C38.6638 40.6069 38.508 40.5038 38.3766 40.3734L37.3641 39.375C36.2079 40.4111 34.9445 41.3209 33.5953 42.0891L32.8781 42.4688C29.6751 44.1413 26.1134 45.01 22.5 45C16.5326 45 10.8097 42.6295 6.5901 38.4099C2.37053 34.1903 1.05209e-06 28.4674 1.05209e-06 22.5C-0.000539422 20.7426 0.207158 18.9913 0.618751 17.2828C0.72723 16.9461 0.958655 16.6626 1.26688 16.4889C1.5751 16.3152 1.93746 16.2641 2.28171 16.3457C2.62596 16.4273 2.92679 16.6357 3.12421 16.9293C3.32164 17.2229 3.40114 17.5801 3.34688 17.9297C2.99274 19.4274 2.81342 20.961 2.8125 22.5C2.81149 25.944 3.71394 29.328 5.42976 32.3142C7.14557 35.3004 9.61472 37.7842 12.5907 39.5176C15.5666 41.2511 18.9452 42.1736 22.3892 42.193C25.8331 42.2124 29.2219 41.328 32.2172 39.6281L32.3438 39.5438C33.4258 38.9248 34.4434 38.1994 35.3812 37.3781L34.1578 36.1547C33.9771 35.9743 33.8488 35.7481 33.7869 35.5004C33.7249 35.2526 33.7316 34.9927 33.8063 34.7484C33.8732 34.5097 34.0022 34.2928 34.18 34.1199C34.3578 33.9471 34.5782 33.8243 34.8187 33.7641L40.4437 32.3578C40.6843 32.2885 40.939 32.2847 41.1816 32.3467C41.4241 32.4087 41.6457 32.5344 41.8235 32.7107C42.0012 32.887 42.1287 33.1076 42.1926 33.3496C42.2566 33.5916 42.2549 33.8464 42.1875 34.0875Z" fill="#696969"/>
<path d="M45.0003 22.5C45.0009 24.2574 44.7932 26.0086 44.3816 27.7171C44.3073 28.0318 44.127 28.3112 43.8708 28.5084C43.6147 28.7056 43.2985 28.8086 42.9753 28.8C42.868 28.8146 42.7592 28.8146 42.6519 28.8C42.2907 28.7131 41.9786 28.4869 41.7836 28.1708C41.5886 27.8546 41.5267 27.4742 41.6113 27.1125C41.9829 25.6027 42.1764 24.0547 42.1878 22.5C42.1888 19.056 41.2864 15.6719 39.5706 12.6858C37.8547 9.69961 35.3856 7.21579 32.4097 5.48231C29.4337 3.74884 26.0551 2.82635 22.6111 2.80697C19.1672 2.78758 15.7784 3.67197 12.7831 5.37183C11.6533 6.0155 10.5929 6.77421 9.61907 7.6359L10.8425 8.84527C11.0233 9.02566 11.1515 9.25186 11.2134 9.49961C11.2754 9.74735 11.2687 10.0073 11.1941 10.2515C11.1271 10.4903 10.9982 10.7071 10.8203 10.88C10.6425 11.0529 10.4221 11.1757 10.1816 11.2359L4.55657 12.6421L4.21907 12.6562C4.034 12.6573 3.85053 12.6218 3.6792 12.5518C3.50787 12.4818 3.35203 12.3787 3.22063 12.2484C3.03743 12.0695 2.90656 11.844 2.84212 11.5962C2.77769 11.3483 2.78215 11.0876 2.85501 10.8421L4.26126 5.21715C4.32365 4.97915 4.4474 4.7617 4.62014 4.5865C4.79287 4.41129 5.00855 4.28447 5.24563 4.21871C5.48986 4.1441 5.7498 4.1374 5.99754 4.19934C6.24529 4.26128 6.4715 4.38951 6.65188 4.57027L7.62219 5.62496C8.78755 4.59805 10.0551 3.69332 11.405 2.92496C14.8279 0.984735 18.6997 -0.0239916 22.6342 -0.000578074C26.5687 0.0228354 30.4282 1.07757 33.8278 3.05839C37.2274 5.03922 40.0481 7.87687 42.0085 11.2882C43.9689 14.6996 45.0005 18.5654 45.0003 22.5Z" fill="#696969"/>
</g>
<defs>
<clipPath id="clip0_479_659">
<rect width="45" height="45" fill="white"/>
</clipPath>
</defs>
</svg>
