<svg width="89" height="113" viewBox="0 0 89 113" fill="none" xmlns="http://www.w3.org/2000/svg">
<g clip-path="url(#clip0_148_2271)">
<path d="M76.6916 -0.474731H12.3086C5.64096 -0.474731 0.236816 4.94523 0.236816 11.6324V100.418C0.236816 107.105 5.64096 112.525 12.3086 112.525H76.6916C83.3593 112.525 88.7634 107.105 88.7634 100.418V11.6324C88.7634 4.94523 83.3593 -0.474731 76.6916 -0.474731ZM84.7395 100.418C84.7395 104.87 81.13 108.49 76.6916 108.49H12.3086C7.87022 108.49 4.26075 104.87 4.26075 100.418V11.6324C4.26075 7.18102 7.87022 3.56098 12.3086 3.56098H76.6916C81.13 3.56098 84.7395 7.18102 84.7395 11.6324V100.418ZM76.6916 7.5967H12.3086C10.0874 7.5967 8.28469 9.4047 8.28469 11.6324V100.418C8.28469 102.646 10.0874 104.454 12.3086 104.454H76.6916C78.9128 104.454 80.7156 102.646 80.7156 100.418V11.6324C80.7156 9.4047 78.9128 7.5967 76.6916 7.5967ZM76.6916 11.6324V39.8824H52.548V35.8467C52.548 33.619 50.7453 31.811 48.5241 31.811H28.4044C26.1832 31.811 24.3804 33.619 24.3804 35.8467V39.8824H12.3086V11.6324H76.6916ZM28.4044 47.9538V35.8467H48.5241V47.9538H28.4044ZM39.7479 51.9896L38.4642 53.5998L37.1806 51.9896H39.7479ZM20.3565 100.418V96.3824H68.6437V100.418H20.3565ZM72.6677 100.418V96.3824C72.6677 94.1547 70.865 92.3467 68.6437 92.3467H20.3565C18.1353 92.3467 16.3326 94.1547 16.3326 96.3824V100.418H12.3086V43.9181H24.3804V47.9538C24.3804 50.1816 26.1832 51.9896 28.4044 51.9896H32.0259L36.8949 58.0915C37.2973 58.596 37.8807 58.8503 38.4642 58.8503C39.0477 58.8503 39.6312 58.596 40.0336 58.0915L44.9025 51.9896H48.5241C50.7453 51.9896 52.548 50.1816 52.548 47.9538V43.9181H76.6916V100.418H72.6677ZM32.4283 82.2574C32.4283 83.3713 33.3297 84.2753 34.4403 84.2753H58.5839C59.6945 84.2753 60.5959 85.1793 60.5959 86.2931C60.5959 87.407 59.6945 88.311 58.5839 88.311H34.4403C31.1125 88.311 28.4044 85.5949 28.4044 82.2574C28.4044 78.9199 31.1125 76.2038 34.4403 76.2038H54.56C55.6706 76.2038 56.5719 75.2998 56.5719 74.186C56.5719 73.0721 55.6706 72.1681 54.56 72.1681H40.4762C38.259 72.1681 36.4522 70.3561 36.4522 68.1324V66.1146C36.4522 65.0007 37.3536 64.0967 38.4642 64.0967C39.5748 64.0967 40.4762 65.0007 40.4762 66.1146V68.1324H54.56C57.8878 68.1324 60.5959 70.8484 60.5959 74.186C60.5959 77.5235 57.8878 80.2395 54.56 80.2395H34.4403C33.3297 80.2395 32.4283 81.1436 32.4283 82.2574Z" fill="white"/>
</g>
<defs>
<clipPath id="clip0_148_2271">
<rect width="89" height="113" fill="white"/>
</clipPath>
</defs>
</svg>
