<svg width="75" height="74" viewBox="0 0 75 74" fill="none" xmlns="http://www.w3.org/2000/svg">
<g clip-path="url(#clip0_148_2292)">
<path d="M45.5209 18.7859C45.3823 17.974 44.6787 17.3799 43.8544 17.3799H5.84626C4.7509 17.3799 3.86397 18.2679 3.86397 19.3612C3.86397 20.4566 4.7509 21.3435 5.84626 21.3435H15.0961C16.1914 21.3435 17.0784 22.2316 17.0784 23.326C17.0784 24.4203 16.1914 25.3083 15.0961 25.3083H2.72888C1.63453 25.3083 0.746582 26.1962 0.746582 27.2906C0.746582 28.3849 1.63453 29.2717 2.72888 29.2717H19.5859C20.5532 29.2717 21.3379 30.0576 21.3379 31.0249C21.3379 31.9921 20.5532 32.7769 19.5859 32.7769H10.63C9.53465 32.7769 8.64771 33.665 8.64771 34.7593C8.64771 35.8535 9.53465 36.7416 10.63 36.7416H17.2305C18.1986 36.7416 18.9835 37.5263 18.9835 38.4936C18.9835 39.4607 18.1986 40.2456 17.2305 40.2456H8.11831C7.02295 40.2456 6.13601 41.1335 6.13601 42.2279C6.13601 43.3223 7.02295 44.2102 8.11831 44.2102H20.6428L21.4328 48.6783H25.9696C25.7028 49.3266 25.5506 50.0343 25.5506 50.7795C25.5506 53.8374 28.0289 56.3159 31.087 56.3159C34.1438 56.3159 36.6223 53.8374 36.6223 50.7795C36.6223 50.0343 36.4701 49.3266 36.2033 48.6783H50.6027L45.5209 18.7859ZM33.4695 50.7793C33.4695 52.0958 32.4033 53.1619 31.0869 53.1619C29.7696 53.1619 28.7033 52.0958 28.7033 50.7793C28.7033 49.8633 29.2253 49.0774 29.9832 48.6781H32.1896C32.9473 49.0774 33.4695 49.8632 33.4695 50.7793Z" fill="#E1B228"/>
<path d="M74.3842 45.2065L72.1101 33.988L63.8065 21.2123H48.688L53.3708 48.6782H58.9009C58.6352 49.3265 58.4829 50.0342 58.4829 50.7794C58.4829 53.8373 60.9613 56.3157 64.0181 56.3157C67.0762 56.3157 69.5545 53.8373 69.5545 50.7794C69.5545 50.0342 69.4024 49.3265 69.1357 48.6782H71.5453C72.4145 48.6782 73.2379 48.2884 73.7881 47.615C74.3374 46.943 74.5572 46.0581 74.3842 45.2065ZM57.2457 26.3235H61.0333L65.9505 33.8869H58.536L57.2457 26.3235ZM66.4017 50.7794C66.4017 52.0958 65.3356 53.1619 64.0181 53.1619C62.7028 53.1619 61.6357 52.0958 61.6357 50.7794C61.6357 49.8633 62.1589 49.0774 62.9156 48.6782H65.122C65.8797 49.0774 66.4017 49.8632 66.4017 50.7794Z" fill="#E1B228"/>
</g>
<defs>
<clipPath id="clip0_148_2292">
<rect width="73.6957" height="73.6957" fill="white" transform="translate(0.746582)"/>
</clipPath>
</defs>
</svg>
