<svg width="93" height="60" viewBox="0 0 93 60" fill="none" xmlns="http://www.w3.org/2000/svg">
<path fill-rule="evenodd" clip-rule="evenodd" d="M69.1078 27.4142C70.3187 28.1953 72.2816 28.1953 73.4924 27.4142C74.7027 26.6332 74.7027 25.3668 73.4924 24.5858L48.6921 8.58581C47.4815 7.80473 45.5187 7.80473 44.3081 8.58581L19.5081 24.5858C18.2974 25.3668 18.2974 26.6332 19.5081 27.4142C20.7187 28.1953 22.6815 28.1953 23.8921 27.4142L46.5001 12.8284L69.1078 27.4142ZM69.1078 51.4144C70.3187 52.1952 72.2816 52.1952 73.4924 51.4144C74.7027 50.6332 74.7027 49.3668 73.4924 48.5856L48.6921 32.5858C47.4815 31.8047 45.5187 31.8047 44.3081 32.5858L19.5081 48.5856C18.2974 49.3668 18.2974 50.6332 19.5081 51.4144C20.7187 52.1952 22.6815 52.1952 23.8921 51.4144L46.5001 36.8285L69.1078 51.4144Z" fill="white"/>
</svg>
