<svg width="64" height="56" viewBox="0 0 64 56" fill="none" xmlns="http://www.w3.org/2000/svg">
<path d="M53.2103 30.6764V9.33335C53.2103 6.76669 50.8403 4.66669 47.9436 4.66669H16.3436C13.4469 4.66669 11.0769 6.76669 11.0769 9.33335V28.4014C10.3396 28.6324 9.62859 28.9637 8.96894 29.4C5.48504 31.7147 4.77536 36.1118 7.39026 39.2C7.81027 39.6958 17.8327 51.3333 32.1436 51.3333H58.4769V37.3334C58.4769 34.6757 56.4993 32.3447 53.2103 30.6764ZM11.6036 36.4C10.732 35.371 10.969 33.9045 12.1263 33.1333C12.6003 32.8183 13.1573 32.6678 13.7076 32.6678C14.5082 32.6678 15.2968 32.9875 15.809 33.5907C15.8788 33.6747 22.9612 42 32.1436 42H42.6769V39.6667V37.3334H32.1436C30.5254 37.3334 28.9046 36.8842 27.3904 36.211C28.8756 34.5019 33.4932 32.6667 40.0436 32.6667C48.0805 32.6667 53.2103 35.4305 53.2103 37.3334V46.6667H50.5769H32.1436C20.4345 46.6667 11.9578 36.8189 11.6036 36.4ZM34.7769 9.33335V14H29.5103V9.33335H34.7769ZM24.2436 9.33335V18.6667H40.0436V9.33335H47.9436V28.8494C45.571 28.3069 42.9087 28 40.0436 28C32.2068 28 25.8065 30.2318 23.0586 33.5732C21.6761 32.5069 20.607 31.458 20.0303 30.7977C19.0599 29.6532 17.7656 28.8493 16.3436 28.406V9.33335H24.2436Z" fill="#E1B228"/>
</svg>
